<?xml version="1.0" encoding="utf-8"?>
<!-- Generator: Adobe Illustrator 24.1.2, SVG Export Plug-In . SVG Version: 6.00 Build 0)  -->
<svg version="1.1" id="Слой_1" xmlns="http://www.w3.org/2000/svg" xmlns:xlink="http://www.w3.org/1999/xlink" x="0px" y="0px"
	 viewBox="0 0 706.67 706.67" style="enable-background:new 0 0 706.67 706.67;" xml:space="preserve">
<rect y="0" width="141.33" height="141.33"/>
<rect y="282.67" width="141.33" height="141.33"/>
<rect x="565.33" y="0" width="141.33" height="141.33"/>
<rect x="565.33" y="282.67" width="141.33" height="141.33"/>
<rect y="565.33" width="141.33" height="141.33"/>
<rect x="282.67" y="565.33" transform="matrix(6.123234e-17 -1 1 6.123234e-17 -282.6667 989.3333)" width="141.33" height="141.33"/>
<rect x="282.67" y="0" transform="matrix(6.123234e-17 -1 1 6.123234e-17 282.6667 424)" width="141.33" height="141.33"/>
<rect x="282.67" y="282.67" transform="matrix(6.123234e-17 -1 1 6.123234e-17 -2.728484e-12 706.6667)" width="141.33" height="141.33"/>
<rect x="565.33" y="565.33" transform="matrix(6.123234e-17 -1 1 6.123234e-17 -1.818989e-12 1272)" width="141.33" height="141.33"/>
</svg>
