<?xml version="1.0" encoding="utf-8"?>
<!-- Generator: Adobe Illustrator 24.1.2, SVG Export Plug-In . SVG Version: 6.00 Build 0)  -->
<svg version="1.1" id="Слой_1" xmlns="http://www.w3.org/2000/svg" xmlns:xlink="http://www.w3.org/1999/xlink" x="0px" y="0px"
	 viewBox="0 0 1065.28 205.38" style="enable-background:new 0 0 1065.28 205.38;" xml:space="preserve">
<polygon points="154.04,0 154.04,51.34 51.34,51.34 51.34,154.04 0,154.04 0,0 "/>
<polygon points="205.38,51.34 205.38,205.38 51.34,205.38 51.34,154.04 154.04,154.04 154.04,51.34 "/>
<g>
	<path d="M407.09,64.39l-17.91,17.07C377,68.59,363.3,62.15,348.07,62.15c-12.85,0-23.68,4.39-32.48,13.18
		c-8.8,8.79-13.2,19.62-13.2,32.49c0,8.97,1.95,16.93,5.85,23.89c3.9,6.96,9.41,12.42,16.54,16.38c7.13,3.97,15.04,5.95,23.75,5.95
		c7.43,0,14.22-1.39,20.37-4.17c6.15-2.78,12.91-7.82,20.28-15.15l17.36,18.11c-9.94,9.7-19.33,16.42-28.16,20.17
		c-8.84,3.75-18.93,5.63-30.27,5.63c-20.91,0-38.02-6.63-51.34-19.89c-13.32-13.26-19.98-30.25-19.98-50.98
		c0-13.41,3.03-25.33,9.1-35.75c6.07-10.42,14.75-18.81,26.06-25.15c11.31-6.34,23.48-9.51,36.53-9.51
		c11.09,0,21.78,2.34,32.05,7.03C390.8,49.08,399.65,55.75,407.09,64.39z"/>
	<path d="M424.01,37.37h24.96v137.89h-24.96V37.37z"/>
	<path d="M545.07,75.77h24.96v99.49h-24.96v-10.52c-4.87,4.63-9.76,7.97-14.66,10.01c-4.9,2.04-10.21,3.06-15.94,3.06
		c-12.85,0-23.96-4.98-33.34-14.95c-9.38-9.97-14.06-22.36-14.06-37.17c0-15.36,4.54-27.95,13.61-37.76
		c9.07-9.81,20.09-14.72,33.06-14.72c5.97,0,11.57,1.13,16.8,3.38c5.24,2.26,10.08,5.64,14.52,10.15V75.77z M518.83,96.26
		c-7.72,0-14.13,2.73-19.23,8.18c-5.1,5.46-7.65,12.45-7.65,20.98c0,8.6,2.6,15.67,7.79,21.22c5.2,5.55,11.59,8.32,19.18,8.32
		c7.84,0,14.34-2.73,19.5-8.18c5.16-5.46,7.75-12.6,7.75-21.44c0-8.66-2.58-15.67-7.75-21.03
		C533.26,98.94,526.73,96.26,518.83,96.26z"/>
	<path d="M656.17,89.67l-15.45,15.45c-6.28-6.22-11.98-9.33-17.1-9.33c-2.81,0-5,0.59-6.58,1.78c-1.59,1.19-2.38,2.67-2.38,4.43
		c0,1.34,0.5,2.58,1.51,3.7c1.01,1.13,3.49,2.67,7.45,4.62l9.14,4.57c9.63,4.76,16.24,9.6,19.84,14.54
		c3.6,4.94,5.39,10.73,5.39,17.37c0,8.84-3.25,16.22-9.74,22.13c-6.49,5.91-15.19,8.87-26.11,8.87c-14.51,0-26.09-5.67-34.75-17.01
		l15.36-16.73c2.93,3.42,6.36,6.17,10.29,8.28c3.93,2.1,7.42,3.15,10.47,3.15c3.29,0,5.94-0.79,7.96-2.38s3.02-3.41,3.02-5.49
		c0-3.84-3.63-7.59-10.88-11.25l-8.41-4.21c-16.09-8.11-24.14-18.26-24.14-30.45c0-7.86,3.03-14.58,9.1-20.16s13.82-8.37,23.27-8.37
		c6.46,0,12.54,1.42,18.24,4.25C647.38,80.3,652.21,84.37,656.17,89.67z"/>
	<path d="M738.56,89.67l-15.45,15.45c-6.28-6.22-11.98-9.33-17.1-9.33c-2.81,0-5,0.59-6.58,1.78c-1.59,1.19-2.38,2.67-2.38,4.43
		c0,1.34,0.5,2.58,1.51,3.7c1.01,1.13,3.49,2.67,7.45,4.62l9.14,4.57c9.63,4.76,16.24,9.6,19.84,14.54
		c3.6,4.94,5.39,10.73,5.39,17.37c0,8.84-3.25,16.22-9.74,22.13c-6.49,5.91-15.19,8.87-26.11,8.87c-14.51,0-26.09-5.67-34.75-17.01
		l15.36-16.73c2.93,3.42,6.36,6.17,10.29,8.28c3.93,2.1,7.42,3.15,10.47,3.15c3.29,0,5.94-0.79,7.96-2.38s3.02-3.41,3.02-5.49
		c0-3.84-3.63-7.59-10.88-11.25l-8.41-4.21c-16.09-8.11-24.14-18.26-24.14-30.45c0-7.86,3.03-14.58,9.1-20.16s13.82-8.37,23.27-8.37
		c6.46,0,12.54,1.42,18.24,4.25C729.77,80.3,734.6,84.37,738.56,89.67z"/>
	<path d="M749.53,40.75h74.34v25.24h-24.51v109.27H773.4V65.99h-23.87V40.75z"/>
	<path d="M912.12,75.77h24.96v99.49h-24.96v-10.52c-4.87,4.63-9.76,7.97-14.66,10.01c-4.9,2.04-10.21,3.06-15.94,3.06
		c-12.85,0-23.96-4.98-33.34-14.95c-9.38-9.97-14.06-22.36-14.06-37.17c0-15.36,4.54-27.95,13.61-37.76
		c9.07-9.81,20.09-14.72,33.06-14.72c5.97,0,11.57,1.13,16.8,3.38c5.24,2.26,10.08,5.64,14.52,10.15V75.77z M885.88,96.26
		c-7.72,0-14.13,2.73-19.23,8.18c-5.1,5.46-7.65,12.45-7.65,20.98c0,8.6,2.6,15.67,7.79,21.22c5.2,5.55,11.59,8.32,19.18,8.32
		c7.84,0,14.34-2.73,19.5-8.18c5.16-5.46,7.75-12.6,7.75-21.44c0-8.66-2.58-15.67-7.75-21.03C900.3,98.94,893.77,96.26,885.88,96.26
		z"/>
	<path d="M987.1,37.37v49.38c4.51-4.51,9.39-7.89,14.63-10.15c5.24-2.25,10.85-3.38,16.82-3.38c12.98,0,24.02,4.91,33.1,14.72
		c9.08,9.82,13.62,22.4,13.62,37.76c0,14.81-4.69,27.2-14.08,37.17c-9.39,9.97-20.51,14.95-33.38,14.95c-5.73,0-11.06-1.02-16-3.06
		s-9.85-5.38-14.72-10.01v10.52h-24.78V37.37H987.1z M1013.34,96.26c-7.86,0-14.39,2.68-19.57,8.05
		c-5.18,5.37-7.77,12.38-7.77,21.03c0,8.84,2.59,15.99,7.77,21.44c5.18,5.46,11.71,8.18,19.57,8.18c7.62,0,14.04-2.77,19.25-8.32
		c5.21-5.55,7.82-12.62,7.82-21.22c0-8.53-2.56-15.53-7.68-20.98C1027.61,98.98,1021.14,96.26,1013.34,96.26z"/>
</g>
</svg>
