<?xml version="1.0" encoding="utf-8"?>
<!-- Generator: Adobe Illustrator 24.1.2, SVG Export Plug-In . SVG Version: 6.00 Build 0)  -->
<svg version="1.1" id="Слой_1" xmlns="http://www.w3.org/2000/svg" xmlns:xlink="http://www.w3.org/1999/xlink" x="0px" y="0px"
	 viewBox="0 0 917.36 260.73" style="enable-background:new 0 0 917.36 260.73;" xml:space="preserve">
<style type="text/css">
	.st0{fill:#FFFFFF;}
</style>
<rect x="86.91" y="173.82" class="st0" width="86.91" height="28.97"/>
<rect x="86.91" y="231.76" class="st0" width="86.91" height="28.97"/>
<polygon class="st0" points="231.76,173.82 231.76,231.76 173.82,231.76 173.82,202.79 202.79,202.79 202.79,173.82 "/>
<polygon class="st0" points="86.91,202.79 86.91,231.76 28.97,231.76 28.97,173.82 57.94,173.82 57.94,202.79 "/>
<polygon class="st0" points="86.91,28.97 86.91,57.94 57.94,57.94 57.94,86.91 28.97,86.91 28.97,28.97 "/>
<polygon class="st0" points="231.76,28.97 231.76,86.91 202.79,86.91 202.79,57.94 173.82,57.94 173.82,28.97 "/>
<rect x="86.91" y="57.94" class="st0" width="86.91" height="28.97"/>
<rect x="86.91" class="st0" width="86.91" height="28.97"/>
<rect x="57.94" y="86.91" class="st0" width="28.97" height="86.91"/>
<rect y="86.91" class="st0" width="28.97" height="86.91"/>
<rect x="173.82" y="86.91" class="st0" width="28.97" height="86.91"/>
<rect x="231.76" y="86.91" class="st0" width="28.97" height="86.91"/>
<g>
	<path class="st0" d="M353.28,88.11c4.01,5.59,8.72,8.39,14.1,8.39c3.58,0,6.47-1.01,8.68-3.03c2.21-2.02,3.31-4.71,3.31-8.06
		c0-3.28-1.07-6.01-3.22-8.17c-2.15-2.16-6.59-3.25-13.34-3.25h-3.25V60.46h3.25c4,0,7.04-0.92,9.12-2.76
		c2.07-1.84,3.11-4.31,3.11-7.41c0-2.85-0.87-5.1-2.61-6.76c-1.74-1.66-4.04-2.49-6.89-2.49c-3.4,0-6.9,1.68-10.48,5.03l-8.93-9.96
		c4.8-4.33,8.81-6.92,12.03-7.76c3.21-0.85,6.18-1.27,8.89-1.27c6.5,0,11.97,1.89,16.39,5.68c4.42,3.79,6.64,8.89,6.64,15.31
		c0,2.85-0.5,5.63-1.49,8.33c-0.99,2.71-3.76,5.57-8.31,8.6c9.31,4.15,13.96,11.24,13.96,21.26c0,7.39-2.48,13.34-7.45,17.83
		s-11.35,6.74-19.15,6.74c-4.91,0-9.32-0.89-13.22-2.68c-3.9-1.79-8.14-5.64-12.73-11.55L353.28,88.11z"/>
	<path class="st0" d="M450.53,49.96h14.77v58.87h-14.77v-6.22c-2.88,2.74-5.77,4.72-8.67,5.92c-2.9,1.21-6.04,1.81-9.43,1.81
		c-7.6,0-14.18-2.95-19.73-8.85c-5.55-5.9-8.32-13.23-8.32-22c0-9.09,2.68-16.54,8.05-22.35c5.37-5.81,11.89-8.71,19.56-8.71
		c3.53,0,6.84,0.67,9.94,2c3.1,1.33,5.96,3.34,8.59,6.01V49.96z M435,62.08c-4.57,0-8.36,1.61-11.38,4.84
		c-3.02,3.23-4.53,7.37-4.53,12.42c0,5.09,1.54,9.27,4.61,12.55c3.07,3.28,6.86,4.92,11.35,4.92c4.64,0,8.48-1.61,11.54-4.84
		c3.06-3.23,4.58-7.46,4.58-12.69c0-5.12-1.53-9.27-4.58-12.44C443.54,63.67,439.67,62.08,435,62.08z"/>
	<path class="st0" d="M480.23,49.96H495v22.02l20.34-22.02h18.03l-26.22,28.69l26.54,30.18h-19.59l-17.55-20.79L495,89.89v18.94
		h-14.77V49.96z"/>
	<path class="st0" d="M533.22,49.96h15.09L563.6,86.9l16.87-36.94h15.14l-36.87,80.4h-15.26l12.1-25.93L533.22,49.96z"/>
	<path class="st0" d="M656.64,108.83h-15.04l-14.73-37.12l-15,37.12h-14.99l25.11-58.87h9.52L656.64,108.83z"/>
	<path class="st0" d="M672.2,108.83h-7.85V49.96h14.39v34.57l30.14-34.57h7.09v58.87h-14.39V74.96L672.2,108.83z"/>
	<path class="st0" d="M788.54,61.87l-12.3,6.76c-2.31-2.42-4.6-4.09-6.85-5.03c-2.26-0.94-4.9-1.41-7.94-1.41
		c-5.53,0-10,1.65-13.41,4.94c-3.41,3.29-5.12,7.52-5.12,12.67c0,5.01,1.64,9.1,4.93,12.26c3.29,3.17,7.6,4.75,12.95,4.75
		c6.61,0,11.76-2.25,15.44-6.76l11.65,7.97c-6.31,8.21-15.22,12.32-26.73,12.32c-10.35,0-18.46-3.06-24.32-9.2
		c-5.86-6.13-8.79-13.31-8.79-21.54c0-5.7,1.43-10.95,4.28-15.75c2.85-4.8,6.83-8.57,11.93-11.31c5.1-2.74,10.81-4.11,17.12-4.11
		c5.84,0,11.09,1.16,15.75,3.49C781.77,54.26,785.58,57.57,788.54,61.87z"/>
	<path class="st0" d="M816.56,71.17h4.39c6.18,0,10.92,0.48,14.23,1.43c3.31,0.96,6.1,2.95,8.38,5.98
		c2.28,3.03,3.41,6.84,3.41,11.42c0,4.54-1.03,8.32-3.08,11.34c-2.06,3.01-4.68,5.01-7.87,6.01c-3.19,0.99-7.67,1.49-13.45,1.49
		h-20.78V49.96h14.77V71.17z M816.56,97.47h4.51c2.68,0,4.62-0.19,5.81-0.57c1.2-0.38,2.24-1.11,3.15-2.19
		c0.9-1.08,1.36-2.4,1.36-3.95c0-5.05-2.9-7.57-8.69-7.57h-6.14V97.47z"/>
	<path class="st0" d="M917.31,83.67h-47.45c0.68,4.18,2.52,7.51,5.49,9.98c2.98,2.47,6.77,3.71,11.39,3.71
		c5.52,0,10.26-1.93,14.23-5.79l12.45,5.84c-3.1,4.4-6.82,7.66-11.15,9.77c-4.33,2.11-9.47,3.16-15.42,3.16
		c-9.23,0-16.76-2.91-22.56-8.74c-5.81-5.82-8.71-13.12-8.71-21.89c0-8.98,2.89-16.44,8.68-22.37c5.79-5.93,13.05-8.9,21.78-8.9
		c9.27,0,16.81,2.97,22.62,8.9s8.71,13.77,8.71,23.51L917.31,83.67z M902.54,72.04c-0.98-3.28-2.9-5.95-5.77-8.01
		c-2.87-2.06-6.21-3.08-10-3.08c-4.12,0-7.73,1.15-10.84,3.46c-1.95,1.44-3.76,3.99-5.42,7.63H902.54z"/>
</g>
<g>
	<path class="st0" d="M341.7,166.51h14.77v22.03l20.34-22.03h18.03l-26.22,28.69l26.54,30.18h-19.59l-17.55-20.79l-1.56,1.85v18.94
		H341.7V166.51z"/>
	<path class="st0" d="M428.87,165c5.55,0,10.78,1.39,15.66,4.17c4.89,2.78,8.7,6.55,11.44,11.31c2.74,4.76,4.11,9.9,4.11,15.42
		c0,5.56-1.38,10.75-4.14,15.58c-2.76,4.83-6.52,8.61-11.28,11.34c-4.76,2.72-10.01,4.08-15.74,4.08c-8.44,0-15.65-3-21.62-9.01
		c-5.97-6.01-8.95-13.3-8.95-21.89c0-9.2,3.37-16.86,10.12-23C414.39,167.67,421.19,165,428.87,165z M429.11,178.9
		c-4.59,0-8.41,1.6-11.46,4.79c-3.05,3.19-4.58,7.28-4.58,12.26c0,5.12,1.51,9.27,4.53,12.44c3.02,3.17,6.84,4.76,11.46,4.76
		c4.62,0,8.47-1.6,11.54-4.82c3.07-3.21,4.61-7.34,4.61-12.39c0-5.05-1.51-9.15-4.53-12.31C437.67,180.48,433.81,178.9,429.11,178.9
		z"/>
	<path class="st0" d="M524.76,225.38h-15.04l-14.73-37.12l-15,37.12H465l25.11-58.87h9.52L524.76,225.38z"/>
	<path class="st0" d="M585.15,225.38H570.1l-14.73-37.12l-15,37.12h-14.99l25.11-58.87h9.52L585.15,225.38z"/>
	<path class="st0" d="M651.9,200.22h-47.45c0.68,4.18,2.52,7.51,5.49,9.98c2.98,2.47,6.77,3.71,11.39,3.71
		c5.52,0,10.26-1.93,14.23-5.79l12.45,5.84c-3.1,4.4-6.82,7.66-11.15,9.77c-4.33,2.11-9.47,3.16-15.42,3.16
		c-9.23,0-16.76-2.91-22.56-8.74c-5.81-5.82-8.71-13.12-8.71-21.89c0-8.98,2.89-16.44,8.68-22.37s13.05-8.9,21.78-8.9
		c9.27,0,16.81,2.97,22.62,8.9s8.71,13.77,8.71,23.51L651.9,200.22z M637.13,188.59c-0.98-3.28-2.9-5.95-5.77-8.01
		c-2.87-2.06-6.21-3.08-10-3.08c-4.12,0-7.73,1.15-10.84,3.46c-1.95,1.44-3.76,3.99-5.42,7.63H637.13z"/>
	<path class="st0" d="M671.49,225.38v10.23h-13.15v-22.72h8.86l20.33-46.37h9.52l20.61,46.37h9.02v22.72h-14.07v-10.23H671.49z
		 M701.96,212.88l-9.67-24.83l-9.99,24.83H701.96z"/>
	<path class="st0" d="M765.8,206.44l-1.59-1.81l-17.52,20.75H727.1l26.58-30.22l-26.25-28.65h18.03l20.34,22.04v-22.04h14.77v22.04
		l20.27-22.04h18.11l-26.22,28.69l26.54,30.18h-19.59l-17.55-20.79l-1.56,1.85v18.94H765.8V206.44z"/>
	<path class="st0" d="M868.76,166.51h14.77v58.87h-14.77v-6.22c-2.88,2.74-5.78,4.72-8.67,5.92c-2.9,1.21-6.04,1.81-9.43,1.81
		c-7.6,0-14.18-2.95-19.73-8.85c-5.55-5.9-8.32-13.23-8.32-22c0-9.09,2.68-16.54,8.05-22.35c5.37-5.81,11.89-8.71,19.56-8.71
		c3.53,0,6.84,0.67,9.94,2c3.1,1.34,5.96,3.34,8.59,6.01V166.51z M853.24,178.63c-4.57,0-8.36,1.61-11.38,4.84
		c-3.02,3.23-4.53,7.37-4.53,12.42c0,5.09,1.54,9.27,4.61,12.55c3.07,3.28,6.86,4.92,11.35,4.92c4.64,0,8.49-1.61,11.54-4.84
		c3.05-3.23,4.58-7.46,4.58-12.69c0-5.12-1.53-9.27-4.58-12.45C861.77,180.22,857.91,178.63,853.24,178.63z"/>
</g>
</svg>
